<?xml version="1.0" encoding="UTF-8"?>
<svg width="800px" height="176px" viewBox="0 130 800 176" xmlns="http://www.w3.org/2000/svg" xmlns:xlink="http://www.w3.org/1999/xlink" version="1.1">
 <!-- Generated by Pixelmator Pro 1.6.2 -->
 <defs>
  <text id="string" transform="matrix(1.0 0.0 0.0 1.0 384.0 278.0)" font-family="Helvetica-Bold, Helvetica" x="1.99609375" fill="#0a58a3" text-decoration="none" font-size="24" y="18.0">https://kapian.io</text>
 </defs>
 <use id="https://kapian.io" xlink:href="#string"/>
 <g id="知识卡片">
  <defs>
   <text id="string-1" transform="matrix(1.0 0.0 0.0 1.0 321.0 164.0)" font-family="PingFangSC-Semibold, PingFang SC" x="1.0" fill="#0a58a3" text-decoration="none" font-size="64" y="68.0">知识卡片</text>
  </defs>
  <use id="知识卡片-1" xlink:href="#string-1"/>
  <path id="icons8-red_card" d="M224.667 165 C220.477 165 217 168.136 217 171.916 L217 234.163 C217 237.943 220.477 241.079 224.667 241.079 L239.581 241.079 C239.685 241.098 239.775 241.139 239.881 241.154 L289.716 247.921 C293.94 248.496 297.899 245.86 298.536 242.045 L308.913 179.798 C309.549 175.981 306.627 172.416 302.399 171.842 L281.412 168.992 C280.174 166.652 277.533 165 274.502 165 Z M224.667 171.916 L274.502 171.916 274.502 234.163 224.667 234.163 Z" fill="#0a58a3" fill-opacity="1" stroke="none"/>
 </g>
</svg>
