<?xml version="1.0" encoding="UTF-8"?>
<svg width="800px" height="418px" viewBox="0 0 800 418" xmlns="http://www.w3.org/2000/svg" xmlns:xlink="http://www.w3.org/1999/xlink" version="1.1">
 <!-- Generated by Pixelmator Pro 1.6.2 -->
 <defs>
  <text id="string" transform="matrix(1.0 0.0 0.0 1.0 224.0 254.5)" font-size="51" y="39.0" fill="#0a58a3" font-family="Helvetica-Bold, Helvetica" x="19.9833984375" text-decoration="none">https://kapian.io</text>
 </defs>
 <use id="https://kapian.io" xlink:href="#string"/>
 <g id="知识卡片">
  <defs>
   <text id="string-1" transform="matrix(1.0 0.0 0.0 1.0 289.39896539399 80.0)" font-size="88.007" y="93.0" fill="#0a58a3" font-family="PingFangSC-Semibold, PingFang SC" x="2.986834461703097" text-decoration="none">知识卡片</text>
  </defs>
  <use id="知识卡片-1" xlink:href="#string-1"/>
  <path id="icons8-red_card" d="M158.543 81.495 C152.781 81.495 148 85.808 148 91.006 L148 176.602 C148 181.8 152.781 186.113 158.543 186.113 L179.052 186.113 C179.194 186.137 179.318 186.195 179.464 186.215 L247.992 195.521 C253.801 196.31 259.245 192.686 260.12 187.441 L274.39 101.845 C275.265 96.595 271.247 91.693 265.433 90.904 L236.574 86.985 C234.871 83.768 231.24 81.495 227.071 81.495 Z M158.543 91.006 L227.071 91.006 227.071 176.602 158.543 176.602 Z" fill="#0a58a3" fill-opacity="1" stroke="none"/>
 </g>
</svg>
